<svg xmlns="http://www.w3.org/2000/svg" viewBox="0 0 731 267.31"><defs><style>.cls-1{fill:none;}.cls-2{font-size:50px;font-family:Montserrat-SemiBold, Montserrat;font-weight:600;}.cls-2,.cls-5{fill:#016937;}.cls-3{letter-spacing:-0.01em;}.cls-4{letter-spacing:-0.01em;}</style></defs><g id="Layer_2" data-name="Layer 2"><g id="Layer_1-2" data-name="Layer 1"><rect class="cls-1" width="731" height="267.31"/><text class="cls-2" transform="translate(121.83 217)">An<tspan class="cls-3" x="71.7" y="0">s</tspan><tspan class="cls-4" x="96.95" y="0">w</tspan><tspan x="142.15" y="0">er a Question</tspan></text><path class="cls-5" d="M354.37,35.07c3.2.8,6.37,1.68,9.59,2.35a7.35,7.35,0,0,0,3.7-.05c10.46-3.6,20-2.07,27.84,5.78s9.59,17.32,5.83,27.8a6,6,0,0,0-.07,3.28c.58,2.25,1.45,4.42,2.17,6.62a5.12,5.12,0,0,1-1.09,5.56,4.87,4.87,0,0,1-5.52,1.07c-.47-.17-.95-.3-1.41-.49-4-1.69-7.69-2.32-12.09-.66-5.07,1.91-10.51,1.06-15.59-.92a5.47,5.47,0,0,0-4.43,0,26,26,0,0,1-18.51.16,7.42,7.42,0,0,0-4-.09c-2.33.54-4.56,1.5-6.87,2.16-3.91,1.11-7.54-2.24-6.12-6,2-5.43,2-10.45.87-16.25C325.68,49.53,338.28,35.43,354.37,35.07ZM332.9,82.68c3-.94,5.54-1.66,8-2.56,1.83-.67,3.4-.31,5.23.27,3,1,6.31,1.88,9.43,1.75a20.88,20.88,0,1,0-4.85-41.4c-11.72,2-19.95,13.72-16.5,25.16a21.35,21.35,0,0,1-.87,15.2C333.22,81.46,333.15,81.85,332.9,82.68ZM399,83c-1-3.09-1.69-5.64-2.58-8.12a6.19,6.19,0,0,1,.22-5,20.53,20.53,0,0,0-6.78-25.3c-5.55-4-11.69-5-18.63-2.92,6,5.58,9,12.13,9,19.92s-3.19,14.24-9,19.69a21.39,21.39,0,0,0,15-.74,7.78,7.78,0,0,1,4.44-.23C393.28,80.9,395.82,81.93,399,83Z"/><path class="cls-5" d="M340.41,126.24c9.85,2.09,16.67,7.52,18.45,17.41,1,5.73.54,11.75.5,17.64,0,.75-1.31,1.64-2.17,2.21-.47.3-1.3.08-2,.08H299.88c-3.67,0-4.21-.52-4.23-4.13s0-7,0-10.47c0-11.37,6.48-19.57,17.55-22.32l1.7-.41c-4.69-4.85-7.12-10.47-6.17-17.18a18.66,18.66,0,0,1,7.08-12.2A19,19,0,0,1,341,98.35C346.78,104.1,350.31,115.78,340.41,126.24Zm14.14,32.36c0-4,.3-7.81-.05-11.57-.86-9-6.67-15.16-15.68-15.8a201.48,201.48,0,0,0-22.39,0c-5.53.23-9.87,3-13,7.69-4.1,6.12-2.33,12.94-2.71,19.7Zm-27-32.62a14.19,14.19,0,1,0-14.11-14.58C313.42,119.64,319.55,126,327.56,126Z"/><path class="cls-5" d="M417,126.26c9.56,2,16.34,7.17,18.27,16.65,1.21,5.93.69,12.22.79,18.35,0,1.71-1.33,2.33-2.95,2.33H376.29c-3.56,0-4-.47-4-4s0-7.14,0-10.71c0-11.25,6.39-19.38,17.36-22.15.54-.13,1.09-.29,1.66-.44-8.25-11.51-8.11-21.39.37-28.81a19.08,19.08,0,0,1,25.62.59C425.15,105.63,425.09,115.87,417,126.26Zm14.12,32.36c0-4.2.21-8.11,0-12-.5-7.73-6.67-14.66-14.36-15.18a187.33,187.33,0,0,0-24.85,0c-6.67.45-11.21,4.69-13.56,11-2,5.28-.63,10.77-1.06,16.22Zm-12.81-46.73a14.14,14.14,0,0,0-28.28-.42c0,8.22,6.2,14.54,14.18,14.5A14.12,14.12,0,0,0,418.28,111.89Z"/><path class="cls-5" d="M350.76,72.46a3,3,0,0,1,3.09-3.15,2.89,2.89,0,0,1,3,3,3.05,3.05,0,1,1-6.1.16Z"/><path class="cls-5" d="M353.52,66.8c-.76-1.72-1.33-3.43-1.92-5.15l-.79-2.58-.65-2.57a21.3,21.3,0,0,0-.91-2.57,3.81,3.81,0,0,1-.05-2.58,8.31,8.31,0,0,1,1.41-2.57,11.15,11.15,0,0,1,2.91-2.58.94.94,0,0,1,1,0,11.15,11.15,0,0,1,2.91,2.58,8.31,8.31,0,0,1,1.41,2.57,3.81,3.81,0,0,1-.05,2.58,21.3,21.3,0,0,0-.91,2.57l-.65,2.57-.79,2.58c-.59,1.72-1.16,3.43-1.92,5.15a.56.56,0,0,1-.65.25A.5.5,0,0,1,353.52,66.8Z"/></g></g></svg>