<svg xmlns="http://www.w3.org/2000/svg" viewBox="0 0 731 267.31"><defs><style>.cls-1{fill:none;}.cls-2{font-size:50px;font-family:Montserrat-SemiBold, Montserrat;font-weight:600;}.cls-2,.cls-4{fill:#fff;}.cls-3{letter-spacing:0em;}</style></defs><g id="Layer_2" data-name="Layer 2"><g id="Layer_1-2" data-name="Layer 1"><rect class="cls-1" width="731" height="267.31"/><text class="cls-2" transform="translate(180.85 219.61)"><tspan class="cls-3">A</tspan><tspan x="37.2" y="0">sk a Question</tspan></text><path class="cls-4" d="M353.64,37.69c3.2.8,6.37,1.68,9.59,2.35a7.28,7.28,0,0,0,3.71-.06c10.45-3.6,20-2.07,27.84,5.79s9.58,17.31,5.82,27.8a6,6,0,0,0-.07,3.28c.58,2.24,1.45,4.41,2.17,6.62A5.1,5.1,0,0,1,401.61,89a4.87,4.87,0,0,1-5.52,1.08c-.47-.18-.95-.31-1.41-.5-3.95-1.68-7.69-2.32-12.09-.66C377.52,90.85,372.08,90,367,88a5.47,5.47,0,0,0-4.43,0,26,26,0,0,1-18.51.16,7.63,7.63,0,0,0-4-.09c-2.33.55-4.56,1.51-6.87,2.16-3.91,1.12-7.54-2.23-6.12-6,2-5.42,2-10.44.87-16.25C325,52.15,337.55,38.05,353.64,37.69ZM332.17,85.3c3-1,5.54-1.67,8-2.57a7.61,7.61,0,0,1,5.23.27,28.43,28.43,0,0,0,9.43,1.75A20.88,20.88,0,1,0,350,43.35c-11.71,2-19.95,13.72-16.5,25.16a21.35,21.35,0,0,1-.87,15.2C332.49,84.08,332.42,84.47,332.17,85.3Zm66.06.29c-1-3.1-1.69-5.64-2.58-8.13a6.17,6.17,0,0,1,.22-5,20.52,20.52,0,0,0-6.78-25.3c-5.55-4-11.69-5-18.62-2.93,6,5.59,9,12.14,9,19.92s-3.19,14.25-9,19.69a21.28,21.28,0,0,0,15-.74,7.87,7.87,0,0,1,4.44-.22C392.55,83.52,395.09,84.55,398.23,85.59Z"/><path class="cls-4" d="M339.68,128.86c9.85,2.08,16.67,7.51,18.45,17.41,1,5.72.54,11.74.5,17.63,0,.76-1.31,1.64-2.17,2.21-.47.31-1.3.09-2,.09H299.15c-3.67,0-4.21-.52-4.22-4.13s0-7,0-10.47c0-11.38,6.48-19.57,17.55-22.32l1.7-.42c-4.69-4.85-7.12-10.46-6.17-17.18a18.64,18.64,0,0,1,7.08-12.19A19,19,0,0,1,340.3,101C346.06,106.72,349.58,118.4,339.68,128.86Zm14.14,32.35c0-4,.3-7.8-.05-11.56-.86-9.05-6.67-15.16-15.68-15.8a201.48,201.48,0,0,0-22.39,0c-5.53.22-9.87,3-13,7.68-4.1,6.13-2.33,13-2.71,19.7Zm-27-32.62A14.19,14.19,0,1,0,312.72,114C312.69,122.25,318.83,128.58,326.83,128.59Z"/><path class="cls-4" d="M416.24,128.87c9.56,2,16.34,7.18,18.27,16.66,1.21,5.92.69,12.21.79,18.34,0,1.71-1.33,2.34-2.95,2.33H375.56c-3.56,0-4-.47-4-4s0-7.14,0-10.71c0-11.26,6.39-19.39,17.36-22.15l1.66-.45c-8.25-11.5-8.1-21.38.37-28.81a19.08,19.08,0,0,1,25.62.6C424.42,108.24,424.36,118.49,416.24,128.87Zm14.12,32.37c0-4.2.21-8.11,0-12-.5-7.72-6.67-14.65-14.36-15.17a184,184,0,0,0-24.85,0c-6.67.45-11.21,4.68-13.55,10.94-2,5.29-.64,10.78-1.07,16.23Zm-12.81-46.73a14.14,14.14,0,0,0-28.28-.43c0,8.22,6.21,14.55,14.18,14.51A14.11,14.11,0,0,0,417.55,114.51Z"/><path class="cls-4" d="M354,54.6c-2.4.44-3.64,1.39-4.2,3.17-.73,2.34-2.58,1.93-4.07,1.48-1.91-.58-1-2.16-.61-3.34a8.94,8.94,0,0,1,8.79-6.09c3.95,0,7,2.35,8.25,6.34,1.09,3.38-.18,6.84-3.39,9.4-.75.6-1.81,1.31-1.94,2.11-.36,2.09-1.65,2.15-3.26,2.11s-2.35-.85-1.89-2.18a29.67,29.67,0,0,1,2.63-5.14c.31-.53,1.25-.7,1.51-1.23.62-1.22,1.63-2.76,1.31-3.8S355.1,55.52,354,54.6Z"/><path class="cls-4" d="M351,75.08a3,3,0,0,1,3.09-3.16,2.91,2.91,0,0,1,3,3,3.05,3.05,0,1,1-6.1.16Z"/></g></g></svg>