<svg xmlns="http://www.w3.org/2000/svg" viewBox="0 0 1440 267.31"><defs><style>.cls-1{fill:none;}.cls-2{font-size:50px;font-family:Montserrat-SemiBold, Montserrat;font-weight:600;}.cls-2,.cls-5{fill:#fff;}.cls-3{letter-spacing:0em;}.cls-4{letter-spacing:0em;}</style></defs><g id="Layer_2" data-name="Layer 2"><g id="Layer_1-2" data-name="Layer 1"><rect class="cls-1" width="1440" height="267.31"/><text class="cls-2" transform="translate(613.62 218.86)">Go B<tspan class="cls-3" x="122.7" y="0">a</tspan><tspan class="cls-4" x="153.3" y="0">c</tspan><tspan x="182.1" y="0">k</tspan></text><path class="cls-5" d="M684,60.83A150.38,150.38,0,0,1,703.77,59a100.59,100.59,0,0,1,20.08,1.4A62.66,62.66,0,0,1,743.27,67,45,45,0,0,1,758.75,81a51.88,51.88,0,0,1,7.8,19,74.36,74.36,0,0,1,1.31,10c.11,1.67.16,3.34.18,5,0,.85,0,1.63,0,2.53L768,118.9l-.17,1.36a24,24,0,0,1-3.95,10.15A32.64,32.64,0,0,1,756.5,138a63.34,63.34,0,0,1-18,9q-4.69,1.57-9.5,2.68a72.83,72.83,0,0,1-9.82,1.61,69.15,69.15,0,0,1-19.79-.9,55.81,55.81,0,0,1-18.54-7,33.26,33.26,0,0,1-7.68-6.48,26.22,26.22,0,0,1-5-8.78,28.88,28.88,0,0,1-1.37-9.91,22.11,22.11,0,0,1,2.43-9.71,21.62,21.62,0,0,1,6.59-7.46,34.13,34.13,0,0,1,8.76-4.45,70,70,0,0,1,19.09-3.39,115.42,115.42,0,0,1,19.32.63,113.88,113.88,0,0,0-19.28,0,68.78,68.78,0,0,0-18.72,3.92,32.6,32.6,0,0,0-8.28,4.52,19.29,19.29,0,0,0-7.82,16,26.89,26.89,0,0,0,1.54,9.1,23.57,23.57,0,0,0,4.74,7.78,30.32,30.32,0,0,0,7.21,5.71,52.72,52.72,0,0,0,17.62,6,65.1,65.1,0,0,0,18.7.27,71.89,71.89,0,0,0,9.2-1.8c3-.81,6.06-1.76,9-2.85a58.17,58.17,0,0,0,16.22-8.71,26.9,26.9,0,0,0,5.9-6.42,18.22,18.22,0,0,0,2.77-7.79l.1-1v-1c0-.7,0-1.53,0-2.29q-.09-2.34-.3-4.65a68.72,68.72,0,0,0-1.45-9.1A45.06,45.06,0,0,0,753,85.05a37.82,37.82,0,0,0-13.31-11.32,55.07,55.07,0,0,0-17.15-5.3,92.84,92.84,0,0,0-18.44-.76,142.61,142.61,0,0,0-18.57,2.26,4.61,4.61,0,1,1-1.7-9.07Z"/><path class="cls-5" d="M661.51,71.07c11.91,1.46,27.13,5.16,37.29,10.49l-11-16.75,2.27-19.89C683.42,54.26,671.49,64.41,661.51,71.07Z"/></g></g></svg>