<svg xmlns="http://www.w3.org/2000/svg" viewBox="0 0 306.48 62.4"><defs><style>.cls-1{fill:#fff;}</style></defs><g id="Layer_2" data-name="Layer 2"><g id="Layer_1-2" data-name="Layer 1"><path class="cls-1" d="M0,30.63a28.29,28.29,0,0,1,1.73-9.91A27.37,27.37,0,0,1,12.54,7,24.88,24.88,0,0,1,26.87,2.21a12.35,12.35,0,0,1,8,2.51A8.74,8.74,0,0,1,38,11.94C38,14,37,15,35.05,15A3,3,0,0,1,33,14.33a3.67,3.67,0,0,1-.75-2.75A3.83,3.83,0,0,0,30.6,8.3a7.16,7.16,0,0,0-4.33-1.19A17.88,17.88,0,0,0,15.7,10.87a26.51,26.51,0,0,0-4.86,4.62,21.56,21.56,0,0,0-3.56,6.6,25.59,25.59,0,0,0-1.37,8.42q0,5.67,3.08,8.36a12,12,0,0,0,8.21,2.69q6.8,0,15.28-4.18l.36-1.73a3.2,3.2,0,0,0,.06-.72q0-.48-.6-.66a10,10,0,0,0-2.39-.18,5.92,5.92,0,0,1-2.62-.44,1.76,1.76,0,0,1-.84-1.71c0-1.63,1.22-2.44,3.64-2.44q4.54,0,6.21.74A2.87,2.87,0,0,1,38,33.14a12.69,12.69,0,0,1-.3,2.33Q35.16,49.19,30.93,55.8T20.18,62.4a18.33,18.33,0,0,1-6.33-1.26c-1.47-.56-2.21-1.43-2.21-2.62a2.92,2.92,0,0,1,.87-2.06,2.6,2.6,0,0,1,1.94-.93,3.31,3.31,0,0,1,.66.12,16.2,16.2,0,0,0,5.37,1.13q3.64,0,6.27-3.52T31.82,41c-.87,1.19-2.89,2.33-6.06,3.4A30,30,0,0,1,16,46,18.14,18.14,0,0,1,5,42.69Q0,39.1,0,30.63Z"/><path class="cls-1" d="M45.14,35.05a31,31,0,0,1,4-7.76q3-4.37,4.81-4.36c1.75,0,2.62.68,2.62,2A9,9,0,0,1,56,28,9.9,9.9,0,0,0,55.35,30c0,.6.43.9,1.28.9s2.26-.58,4.21-1.73a1.25,1.25,0,0,1,.48-.06c.24,0,.55.22.93.65A2,2,0,0,1,62.81,31a1,1,0,0,1-.24.75c-2.38,2.14-4.71,3.22-7,3.22q-4.06,0-4.06-3.46c0-.08.32-1.38.95-3.88A11.62,11.62,0,0,0,51.53,29,70.22,70.22,0,0,0,46,41a2.66,2.66,0,0,1-2.57,1.55c-1.64,0-2.45-1.31-2.45-3.94v-.48a43.55,43.55,0,0,1,1.85-12.59c.6-1.8,1.55-2.69,2.87-2.69a1.7,1.7,0,0,1,1.25.48,1.61,1.61,0,0,1,.48,1.19Z"/><path class="cls-1" d="M65.56,42.87a6.28,6.28,0,0,1-4.9-2.15,7.79,7.79,0,0,1-1.91-5.37A13.1,13.1,0,0,1,62,26.66a9.53,9.53,0,0,1,7.49-3.79,5.58,5.58,0,0,1,4.21,1.79,6.34,6.34,0,0,1,1.7,4.54,12,12,0,0,1-.24,1.91q3.89-.72,7.7-5a.85.85,0,0,1,.63-.24q.39,0,.81.57a1.92,1.92,0,0,1,.42,1.14,1.11,1.11,0,0,1-.24.8,18.88,18.88,0,0,1-9.91,6.57Q72.54,42.86,65.56,42.87Zm.89-3.82a3.75,3.75,0,0,0,2.9-1.73,6.8,6.8,0,0,0,1.52-3.47c-1.47-.63-2.21-1.45-2.21-2.44a4.24,4.24,0,0,1,1.56-3,1.84,1.84,0,0,0-.39-1.13,1.2,1.2,0,0,0-.93-.36q-2.27,0-3.88,2.66a10.53,10.53,0,0,0-1.61,5.52Q63.41,39.06,66.45,39.05Z"/><path class="cls-1" d="M110.16,32.42a22.14,22.14,0,0,1-6.09,8.48A9.57,9.57,0,0,1,98,43.35q-4.12,0-5.08-4.9c-2,3.19-4.35,4.78-7,4.78a6,6,0,0,1-4.69-2,7.86,7.86,0,0,1-1.76-5.37A14.09,14.09,0,0,1,81,29.5c.48-1,.9-1.75,1.26-2.39s.77-1.31,1.25-2,.74-1.07.78-1.11c.67-1,1.37-1.49,2.09-1.49a2.52,2.52,0,0,1,1.76.63c.46.42.68.75.68,1a1.58,1.58,0,0,1-.11.63c-.44.52-.77.94-1,1.25s-.49.7-.81,1.14A14.52,14.52,0,0,0,84,35.41c0,2.55.77,3.82,2.33,3.82q3,0,6.51-8.06l1-2.15c1-3.54,2-5.32,3.11-5.32h.17c1.4,0,2.09.44,2.09,1.32A12.27,12.27,0,0,1,97.74,29a16.41,16.41,0,0,0-1.85,6.87c0,2.38.82,3.58,2.45,3.58a5.85,5.85,0,0,0,4-2,16.11,16.11,0,0,0,3.34-4.93,11.5,11.5,0,0,0,.6-1.07,8.46,8.46,0,0,1-3.37-2.93,6.86,6.86,0,0,1-1.23-3.85,4.61,4.61,0,0,1,1.41-3.4,5.33,5.33,0,0,1,4-1.41,4.54,4.54,0,0,1,3.43,1.71,5.92,5.92,0,0,1,1.28,3.85,14.83,14.83,0,0,1-.47,3.94,22.32,22.32,0,0,0,5.79-1.2,1.81,1.81,0,0,1,1-.3,1.2,1.2,0,0,1,.93.51,2.06,2.06,0,0,1,.42,1.35,1.14,1.14,0,0,1-.9,1.13,19.12,19.12,0,0,1-7.4,1.67Zm-4.84-7.16a3.67,3.67,0,0,0,2.21,3.34,10.39,10.39,0,0,0,.72-3.28c0-1.44-.46-2.15-1.37-2.15a1.34,1.34,0,0,0-1.11.62A2.46,2.46,0,0,0,105.32,25.26Z"/><path class="cls-1" d="M113.44,36.84a24.19,24.19,0,0,1,1-6.18,24.81,24.81,0,0,1,1.91-5.28A5,5,0,0,1,118,23.32,3.56,3.56,0,0,1,119.5,23a2.64,2.64,0,0,1,1.5.42,1.12,1.12,0,0,1,.62.89,4.29,4.29,0,0,1-.68,1.67,26.26,26.26,0,0,0-1.76,4.66,19.79,19.79,0,0,0-1.08,5.55c0,1.88.7,2.81,2.09,2.81q2.5,0,6-4.06a1.45,1.45,0,0,1,1.17-.6,1.84,1.84,0,0,1,1.25.51,1.56,1.56,0,0,1,.57,1.19,2.57,2.57,0,0,1-.66,1.53q-4.43,5.19-9.2,5.19a5.7,5.7,0,0,1-4.29-1.64A5.81,5.81,0,0,1,113.44,36.84Zm8.78-17.79q-3.23,0-3.22-2.81a2.9,2.9,0,0,1,1-2.36A4.07,4.07,0,0,1,122.7,13c2,0,3,.89,3,2.68a3.18,3.18,0,0,1-1,2.45A3.51,3.51,0,0,1,122.22,19.05Z"/><path class="cls-1" d="M141.81,38.57q2.26-.48,5.49-3.52a.92.92,0,0,1,.68-.24q.45,0,1,.81a2.62,2.62,0,0,1,.51,1.25,1.58,1.58,0,0,1-.12.69,12.78,12.78,0,0,1-4.78,3.76,12.11,12.11,0,0,1-4.78,1.31c-2.3,0-3.46-1.25-3.46-3.76a20.16,20.16,0,0,1,1.2-5.67c.79-2.47,1.19-3.79,1.19-4s0-.27-.12-.27h-.06q-1,.42-4.27,4.75a33.31,33.31,0,0,0-4,6.12,7.83,7.83,0,0,1-1.22,2.3,2.3,2.3,0,0,1-1.64.5c-1.48,0-2.21-1.55-2.21-4.54A39.67,39.67,0,0,1,127.83,25a2.75,2.75,0,0,1,2.63-2.15,1.59,1.59,0,0,1,1.19.48,1.39,1.39,0,0,1,.48,1,2.58,2.58,0,0,1-.06.69,56.07,56.07,0,0,0-2.21,8.83,36.65,36.65,0,0,1,6.09-8.2c2-1.9,3.77-2.84,5.32-2.84a3.17,3.17,0,0,1,2.09.75,2.09,2.09,0,0,1,.89,1.58,26.25,26.25,0,0,1-1.52,5.94c-1,3.08-1.56,4.91-1.64,5.46A10.55,10.55,0,0,0,141,38q0,.63.39.6Z"/><path class="cls-1" d="M165,26.39l-3.34,14.15q6.15-5,8.6-5a1.85,1.85,0,0,1,1.16.56,2,2,0,0,1,.63,1.53c0,.63-.44,1.17-1.32,1.61q-6.91,3.77-9.61,5.55-2.15,9.74-4.78,12.84c-2.23,2.59-4.69,3.88-7.4,3.88-3.3,0-5-1.35-5-4.06a4.36,4.36,0,0,1,.36-1.85l.33-.87a4.26,4.26,0,0,1,.48-.86l.51-.75c.12-.18.31-.45.59-.8l.57-.72q.15-.18.63-.69c.32-.34.76-.84,1.34-1.52a23.67,23.67,0,0,1,3.55-3c.64-.51,1.49-1.16,2.54-1.94s1.84-1.36,2.36-1.76l.6-2.86a6.26,6.26,0,0,1-2.39,1.94,7,7,0,0,1-3.11.8,5.22,5.22,0,0,1-4-1.64,5.8,5.8,0,0,1-1.52-4.09,13.77,13.77,0,0,1,3.82-9.64,11.53,11.53,0,0,1,8.66-4.15h.24a2.37,2.37,0,0,1,1.55.45,1.25,1.25,0,0,1,.54,1,3.37,3.37,0,0,1,1.37-.24,2.22,2.22,0,0,1,1.46.51,1.59,1.59,0,0,1,.63,1.28ZM148.67,58.28c2,0,3.8-1.35,5.32-4a27.24,27.24,0,0,0,3-7.86c-.4.36-1,.9-1.88,1.62s-1.5,1.26-1.94,1.64-1,.87-1.7,1.49a16.86,16.86,0,0,0-1.58,1.55q-.54.63-1.38,1.77a4.17,4.17,0,0,0-.83,2.56C147.72,57.86,148,58.28,148.67,58.28Zm5-19.59q3.59,0,5.19-5.79l1.61-6.09a8.07,8.07,0,0,0-6.24,3,9.19,9.19,0,0,0-2.65,5.95C151.6,37.73,152.29,38.69,153.69,38.69Z"/><path class="cls-1" d="M191.54,50a6.26,6.26,0,0,1-5.19-2.81Q182.59,42.1,182.59,30q0-17.19,8.77-25.49A16,16,0,0,1,202.05,0h1.14q7.69,0,12.24,3.61a11.28,11.28,0,0,1,4.53,9.2,11.57,11.57,0,0,1-4.83,9.4Q210.29,26,201.93,27c-.2.08-.38.74-.54,2l-.24,2c-.08.68-.17,1.58-.29,2.72s-.29,2.61-.51,4.44a32.64,32.64,0,0,1-1.14,5.47,10.19,10.19,0,0,1-2.74,4.57A6.89,6.89,0,0,1,191.54,50Zm.72-4.3c1.43,0,2.41-1.22,2.92-3.64.28-1.32.49-2.6.63-3.86s.31-3,.51-5.25.4-4.15.6-5.7l-1.41-.54a15.32,15.32,0,0,1-1.49-.63c-.26-.14-.61-.36-1.05-.65a2.38,2.38,0,0,1-.89-1,5.05,5.05,0,0,1-.24-1.79c0-.8.18-1.19.54-1.19a7.5,7.5,0,0,1,2.62.92,8.24,8.24,0,0,0,2.45.93c.24-.84.56-2.17,1-4a30.48,30.48,0,0,1,1.43-4.84,3.42,3.42,0,0,1,3.29-2.39c1.47,0,2.24.42,2.32,1.26-.16.55-.77,2.09-1.85,4.59a15,15,0,0,0-1.55,5.56,17.46,17.46,0,0,0,9.32-3.38,8.45,8.45,0,0,0,3.46-6.8,7.38,7.38,0,0,0-3-6.27c-2-1.5-4.71-2.24-8.18-2.24a13,13,0,0,0-8.48,2.68,16.31,16.31,0,0,0-4.53,6.27A42.46,42.46,0,0,0,187.54,30Q187.54,45.74,192.26,45.74Z"/><path class="cls-1" d="M222.05,42.75a5.17,5.17,0,0,1-4.59-2.42,11.7,11.7,0,0,1-1.62-6.59c0-.84,0-1.48.06-1.91a63.8,63.8,0,0,1,4.54-18A24.58,24.58,0,0,1,225,6.36q2.75-3,5.79-3a3.72,3.72,0,0,1,2.87,1.17,4.12,4.12,0,0,1,1.07,2.89v.48a28.34,28.34,0,0,1-4.9,12.6,43.6,43.6,0,0,1-9.49,10.63,25.33,25.33,0,0,0-.24,2.92q0,4.84,2.87,4.84t6.63-4.18a1.39,1.39,0,0,1,1-.42,1.78,1.78,0,0,1,1.2.51,1.64,1.64,0,0,1,.56,1.25,2.33,2.33,0,0,1-.71,1.53Q227.19,42.75,222.05,42.75ZM229.34,8.3c-1.67,0-3.36,2.13-5.05,6.39a57,57,0,0,0-3.43,12.12,56,56,0,0,0,6.48-9q3-5,3-8.36C230.35,8.7,230,8.3,229.34,8.3Z"/><path class="cls-1" d="M228.92,36.36a13.8,13.8,0,0,1,3.85-9.58q3.85-4.22,8.21-4.21c1.63,0,2.45.42,2.45,1.25v.36h1.37c1.12,0,1.67.52,1.67,1.55v.36L244.8,36.36a2.85,2.85,0,0,0-.06.66c0,1,.34,1.43,1,1.43q2.27,0,5.37-4a1.12,1.12,0,0,1,.84-.53c.39,0,.73.3,1,.92a4,4,0,0,1,.42,1.61,3.51,3.51,0,0,1-.12,1A15.47,15.47,0,0,1,249.7,41a7.3,7.3,0,0,1-4.21,1.58,4.38,4.38,0,0,1-3.11-1A4.64,4.64,0,0,1,241,38.69v.12a7.81,7.81,0,0,1-2.69,3,7.71,7.71,0,0,1-4.12,1.07,4.72,4.72,0,0,1-3.85-1.82A7.28,7.28,0,0,1,228.92,36.36Zm6.75,2.33a4.06,4.06,0,0,0,3.07-1.79,10,10,0,0,0,2-3.94l1.61-6.69a8,8,0,0,0-6.21,3.29q-2.74,3.29-2.74,6.21C233.4,37.72,234.15,38.69,235.67,38.69Z"/><path class="cls-1" d="M249.88,34.69a13,13,0,0,1,2.86-8.09A8.76,8.76,0,0,1,260,22.87a5.75,5.75,0,0,1,4,1.4,4.33,4.33,0,0,1,1.52,3.26,5.67,5.67,0,0,1-1.13,3.4c-.76,1-1.42,1.55-2,1.55A1.59,1.59,0,0,1,260.74,31a2.77,2.77,0,0,1,.39-1.22,3.28,3.28,0,0,0,.39-1.53,1.34,1.34,0,0,0-.54-1.16,2.07,2.07,0,0,0-1.25-.39,4.9,4.9,0,0,0-3.67,2.09,9,9,0,0,0-1.77,6,4.65,4.65,0,0,0,1.26,3.46,4.42,4.42,0,0,0,3.28,1.26q4.25,0,9.14-5.38a1,1,0,0,1,1.58.15,1.75,1.75,0,0,1,.39,1.08,1.9,1.9,0,0,1-.24,1A15.9,15.9,0,0,1,265,41a12.61,12.61,0,0,1-7,2,7.84,7.84,0,0,1-6.54-3.28A8,8,0,0,1,249.88,34.69Z"/><path class="cls-1" d="M266.24,34.87a13.25,13.25,0,0,1,2.89-8.21,8.59,8.59,0,0,1,7-3.79,6.08,6.08,0,0,1,4.06,1.37,4.63,4.63,0,0,1,1.61,3.7,6.36,6.36,0,0,1-2.69,5.32A20.59,20.59,0,0,1,271,36.42q.84,2.56,4.3,2.57,4.79,0,9-4.06a1,1,0,0,1,.74-.24,1.39,1.39,0,0,1,1,.42,1.34,1.34,0,0,1,.45,1,2.08,2.08,0,0,1-.42,1.2,15.35,15.35,0,0,1-11.44,5.61,9,9,0,0,1-5.94-2.06A7.39,7.39,0,0,1,266.24,34.87Zm10-8.12c-1.3,0-2.54.75-3.74,2.24a7.56,7.56,0,0,0-1.79,4.81q7.47-2.58,7.47-5.38C278.18,27.31,277.53,26.75,276.24,26.75Z"/><path class="cls-1" d="M292.63,42.87a13.76,13.76,0,0,1-6.48-1.46,8.44,8.44,0,0,1-3.85-3.67q2.63-4.55,7-13.5A3,3,0,0,1,292,22.39a2.17,2.17,0,0,1,1.52.57,1.87,1.87,0,0,1,.63,1.46,2.69,2.69,0,0,1-.36,1.43,2.32,2.32,0,0,0-.36,1.2,5,5,0,0,0,1.32,2.21,41.47,41.47,0,0,1,2.59,3.58,6.56,6.56,0,0,1,1.29,3.43,4.76,4.76,0,0,1-.66,2.54q2.75-.9,5.85-4.78a1.22,1.22,0,0,1,.87-.35c.34,0,.71.26,1.13.8a2.43,2.43,0,0,1,.63,1.38,2.3,2.3,0,0,1-.24,1,12.29,12.29,0,0,1-5.19,4.33A19.63,19.63,0,0,1,292.63,42.87Zm-1.5-3.4h.24c2,0,3-.9,3-2.69s-1-4.1-2.87-6.93l-3.94,8A6.34,6.34,0,0,0,291.13,39.47Z"/></g></g></svg>