<svg xmlns="http://www.w3.org/2000/svg" viewBox="0 0 182.42 182.42"><defs><style>.cls-1{fill:#fff;}.cls-2{fill:#016938;}</style></defs><g id="Layer_2" data-name="Layer 2"><g id="Layer_1-2" data-name="Layer 1"><circle class="cls-1" cx="91.21" cy="91.21" r="91.21"/><path class="cls-2" d="M53.74,99.33c0,7.44-5.88,13.09-16.8,13.09a25,25,0,0,1-16.81-6.73L24.51,98c4.44,4.38,9.07,5.76,12.43,5.76,5.34,0,7.2-1.62,7.2-3.84,0-1.92-1.44-3.12-6.72-4-10.81-1.86-15.85-5.7-15.85-12.67s5.94-13.08,16-13.08c1.32,0,9.3.24,14.64,5.16L48,82.88A14.89,14.89,0,0,0,37.42,78.8c-3.3,0-6.25,1.2-6.25,3.42,0,1.86,1.38,2.83,6.25,3.85C46.9,88.11,53.74,90.69,53.74,99.33Z"/><path class="cls-2" d="M88.21,99H67.68c.78,2.82,3.36,4.8,7.38,4.8a25.63,25.63,0,0,0,8.7-1.8l2.64,7.63s-4.2,2.82-11.58,2.82c-12,0-17.23-7.21-17.23-15.85s5.28-15.85,15.85-15.85c9.48,0,14.89,5.89,14.89,15.85C88.33,97.23,88.27,98.19,88.21,99Zm-10-5.76A5,5,0,0,0,73,88.41a5.39,5.39,0,0,0-5.28,4.8Z"/><path class="cls-2" d="M122.91,94.17v17.29H113.3V95.13c0-4.8-2.7-5.76-4.8-5.76s-5.76,1.32-5.76,6.72v15.37H93.13V81.68h9.61v2.88a11.24,11.24,0,0,1,8.64-3.84C117.44,80.72,122.91,85.17,122.91,94.17Z"/><path class="cls-2" d="M150.76,84.2v-15h9.61v42.26h-9.61v-2.52a12.35,12.35,0,0,1-8.64,3.48c-8,0-14.41-7.09-14.41-15.85s6.42-15.85,14.41-15.85A12.35,12.35,0,0,1,150.76,84.2Zm0,12.37a6.74,6.74,0,1,0-6.72,7.2A7,7,0,0,0,150.76,96.57Z"/></g></g></svg>